<?xml version="1.0" encoding="UTF-8"?>
<svg version="1.1" viewBox="0 0 2048 1142" width="1280" height="1280" xmlns="http://www.w3.org/2000/svg">
<path transform="translate(962,321)" d="m0 0h60l6 10 5 12 12 31 15 40 9 23 9 24 13 34 16 40h2v-212l2-2h125l19 2 15 5 10 6 10 9 7 10 5 12 2 10v112l-4 15-7 14-9 10-11 7-11 5-11 3-12 1h-191l-4-6-9-27-3-6h-80l-13 37-2 2h-60l1-6 15-37 19-52 11-29 16-42 15-40 6-14zm203 43v123l1 12h15l40-1 12-2 9-6 6-10v-96l-4-10-6-5-8-3-13-1zm-175 25-11 31-12 36-1 7 50-1v-6l-15-43-8-23z" fill="#6C1E19"/>
<path transform="translate(950,567)" d="m0 0h85l23 3 15 6 10 9 6 9 5 16 2 16v107l-2 18-5 16-6 10-9 8-10 5-17 4h-110l-17-4-10-5-7-6-7-11-4-11-2-10-1-11v-103l1-20 6-19 6-9 7-7 8-5 16-4zm9 44-7 3-5 6-2 8v108l3 8 6 5 6 2h60l12-3 6-6 2-12v-99l-2-11-4-5-11-4z" fill="#4C1B1E"/>
<path transform="translate(682,571)" d="m0 0h144l14 2 13 5 11 8 6 9 5 12 2 13 1 12v32l-2 21-4 13-6 10-7 6-13 7h-3l4 10 11 19 12 21 9 16 1 4-3 1h-55l-4-4-11-20-12-22-11-19v-2h-44v66l-12 1h-44l-1-1zm57 43v67l1 1h34l35-1 8-5 4-5 1-4v-39l-3-7-6-5-10-2z" fill="#4C1B1E"/>
<path transform="translate(683,321)" d="m0 0h56l1 1 1 169 4 6 6 3h62l6-4 4-6 1-7 1-161 1-1h55v165l-1 14-4 15-6 10-8 9-10 6-10 3-14 2-34 1h-38l-29-2-15-4-10-6-5-4-6-9-5-12-2-8-1-16-1-162z" fill="#6D1E19"/>
<path transform="translate(1322,321)" d="m0 0h175v44h-118v43l92-1 1 1v44h-88l-5-1v33l-1 14h119v44h-175z" fill="#6C1D18"/>
<path transform="translate(1296,571)" d="m0 0h54l1 87h25l5-5 10-17 9-16 14-25 8-14 6-8 2-2h57l-2 5-11 20-10 17-16 28-13 23-8 13 1 6 15 27 14 26 9 16 14 25 6 11v4h-56l-5-5-14-27-8-14-13-24-11-20-29-1v90l-1 1h-54l-1-1v-217z" fill="#4C1B1E"/>
<path transform="translate(1160,571)" d="m0 0h123l-1 43-104 1-7 2-5 5-2 5-1 110 4 9 7 4h32l51-3h26v40l-4 2-37 3-42 2h-49l-10-2-14-7-7-6-6-9-4-9-2-8-1-10v-116l1-13 3-12 6-12 10-9 14-7 8-2z" fill="#4C1A1D"/>
<path transform="translate(592,439)" d="m0 0 6 1 2 3 1 15 11-2 3 1 1 7-3 6v4l10 3 3 4-2 4-14 9-42 30-5 3h-7l-10-3-6-5-4 1-22 15-15 11-17 12-23 16-17 12-13 9-18 13-2 10-5 9-9 12-2 4 1 6 5 6 10 5 5 1 14 1 3 1 1 8-4 6-7 7-11 7-3 1-24 1-10 3-8 7-6 12-7 21-5 10-9 12-11 11-14 8-15 5-12 1-16-2-15-5-11-7-12-11-13-18-14-20-9-14-5-17-1-7v-14l4-16 7-14 11-13 12-9 12-6 12-3h24l12 3h13l6-4 5-6 10-22 7-9 8-7 10-4 11-1 13 4 13 7 12 11 9 10 4 6 4-1 18-13 16-11 18-13 15-10 20-14 17-12 20-13-2-15v-7l3-5 11-9 13-9 19-14 11-8zm-6 22-13 10-16 11-9 7-3 4v7l6 9 7 6h7l20-15 14-10 6-5-3-9-3-6-8-7-1-2zm-236 111-8 3-7 6-5 8-9 19-7 9-9 6-9 3-12-1-12-3h-19l-13 4-10 6-10 9-8 11-4 10-2 9v18l4 13 6 10 14 20 13 18 9 9 9 6 14 5 5 1h14l13-3 14-7 13-13 8-13 5-13 5-15 6-10 5-6 7-5 13-4 20-1 9-2v-4l-12-5-10-9-6-10v-10l6-12-1-3-22 15-16 11-6 5 2 6 7 10-1 5-9 8-14 9-5-1-7-8-13-19-8-11v-5l4-5 16-10 5-3 5 2 9 12 6-2 18-13 15-11 11-7 11-8-2-4-10-13-11-9-14-7zm-31 77-6 3-1 4 11 18 4 5 5-1 5-5-1-5-12-16-3-3z" fill="#542224"/>
<path transform="translate(194,652)" d="m0 0 2 2-2 13v20l2 11 1 3-2 2-4-14-1-7v-14z" fill="#854541"/>
<path transform="translate(236,610)" d="m0 0 2 1v2l-16 8-12 11-6 5v-3l9-10 14-10z" fill="#803E3A"/>
<path transform="translate(200,710)" d="m0 0 3 1 9 13-1 2h-2l-9-13z" fill="#783430"/>
<path transform="translate(216,622)" d="m0 0 1 3-10 10-4 2 2-4 8-9z" fill="#814441"/>
<path transform="translate(592,439)" d="m0 0 6 1-1 3-7 1-1 1h-5l4-4zm-10 6 2 1h-3z" fill="#8A4F4C"/>
<path transform="translate(266,607)" d="m0 0 10 1 8 2-1 3-7-2h-3l-8-2z" fill="#78312D"/>
<path transform="translate(349,557)" d="m0 0 10 1 3 2-4 1-3-1h-9l-1-2z" fill="#8D504C"/>
<path transform="translate(297,650)" d="m0 0 2 1 3 9-2 2-4-6v-5z" fill="#7D3D3A"/>
<path transform="translate(225,747)" d="m0 0 4 1 2 3v3h2l2 4h-3l-7-10z" fill="#7A3936"/>
<path transform="translate(456,561)" d="m0 0m-2 1 2 1-3 3-6 5h-2l-2 2 1-4z" fill="#8C4F4B"/>
<path transform="translate(355,700)" d="m0 0 2 2-3 7-2 2v2l-3-1z" fill="#894945"/>
<path transform="translate(387,655)" d="m0 0 5 5 4 5-1 2-7-7-2-4z" fill="#6A1C18"/>
</svg>
